<mxfile host="app.diagrams.net" agent="Mozilla/5.0 (Windows NT 10.0; Win64; x64) AppleWebKit/537.36 (KHTML, like Gecko) Chrome/131.0.0.0 Safari/537.36" version="26.0.6">
  <diagram id="C5RBs43oDa-KdzZeNtuy" name="Page-1">
    <mxGraphModel dx="1698" dy="1969" grid="1" gridSize="10" guides="1" tooltips="1" connect="1" arrows="1" fold="1" page="1" pageScale="1" pageWidth="827" pageHeight="1169" math="0" shadow="0">
      <root>
        <mxCell id="WIyWlLk6GJQsqaUBKTNV-0" />
        <mxCell id="WIyWlLk6GJQsqaUBKTNV-1" parent="WIyWlLk6GJQsqaUBKTNV-0" />
        <mxCell id="t3SlZqe1kz81l5XPFdOe-0" value="Guest" style="shape=umlActor;verticalLabelPosition=bottom;verticalAlign=top;html=1;outlineConnect=0;" vertex="1" parent="WIyWlLk6GJQsqaUBKTNV-1">
          <mxGeometry x="80" y="70" width="30" height="60" as="geometry" />
        </mxCell>
        <mxCell id="t3SlZqe1kz81l5XPFdOe-1" value="" style="rounded=0;whiteSpace=wrap;html=1;" vertex="1" parent="WIyWlLk6GJQsqaUBKTNV-1">
          <mxGeometry x="140" y="-340" width="680" height="1990" as="geometry" />
        </mxCell>
        <mxCell id="t3SlZqe1kz81l5XPFdOe-2" value="Artist" style="shape=umlActor;verticalLabelPosition=bottom;verticalAlign=top;html=1;outlineConnect=0;" vertex="1" parent="WIyWlLk6GJQsqaUBKTNV-1">
          <mxGeometry x="80" y="960" width="30" height="60" as="geometry" />
        </mxCell>
        <mxCell id="t3SlZqe1kz81l5XPFdOe-3" value="User" style="shape=umlActor;verticalLabelPosition=bottom;verticalAlign=top;html=1;outlineConnect=0;" vertex="1" parent="WIyWlLk6GJQsqaUBKTNV-1">
          <mxGeometry x="70" y="510" width="30" height="60" as="geometry" />
        </mxCell>
        <mxCell id="t3SlZqe1kz81l5XPFdOe-4" value="Admin" style="shape=umlActor;verticalLabelPosition=bottom;verticalAlign=top;html=1;outlineConnect=0;" vertex="1" parent="WIyWlLk6GJQsqaUBKTNV-1">
          <mxGeometry x="80" y="1355" width="30" height="60" as="geometry" />
        </mxCell>
        <mxCell id="t3SlZqe1kz81l5XPFdOe-7" value="&lt;span style=&quot;font-family: &amp;quot;Nunito Sans&amp;quot;, sans-serif; font-size: 14px; text-align: start; white-space-collapse: preserve; background-color: rgb(255, 255, 255);&quot;&gt;&lt;b&gt;Consulter les playlists publiques.&lt;/b&gt;&lt;/span&gt;" style="ellipse;whiteSpace=wrap;html=1;fillColor=#99FFFF;" vertex="1" parent="WIyWlLk6GJQsqaUBKTNV-1">
          <mxGeometry x="237.5" y="-10" width="196" height="70" as="geometry" />
        </mxCell>
        <mxCell id="t3SlZqe1kz81l5XPFdOe-8" value="&lt;b&gt;&lt;br&gt;&lt;span style=&quot;color: rgb(0, 0, 0); font-family: &amp;quot;Nunito Sans&amp;quot;, sans-serif; font-size: 14px; font-style: normal; font-variant-ligatures: normal; font-variant-caps: normal; letter-spacing: normal; orphans: 2; text-align: start; text-indent: 0px; text-transform: none; widows: 2; word-spacing: 0px; -webkit-text-stroke-width: 0px; white-space: pre-wrap; background-color: rgb(255, 255, 255); text-decoration-thickness: initial; text-decoration-style: initial; text-decoration-color: initial; float: none; display: inline !important;&quot;&gt;Parcourir les chansons disponibles.&lt;/span&gt;&lt;/b&gt;" style="ellipse;whiteSpace=wrap;html=1;fillColor=#99FFFF;" vertex="1" parent="WIyWlLk6GJQsqaUBKTNV-1">
          <mxGeometry x="242.5" y="70" width="186" height="80" as="geometry" />
        </mxCell>
        <mxCell id="t3SlZqe1kz81l5XPFdOe-9" value="&lt;div style=&quot;text-align: start;&quot;&gt;&lt;span style=&quot;color: light-dark(rgb(0, 0, 0), rgb(255, 255, 255)); font-size: 14px; white-space-collapse: preserve; background-color: rgb(255, 255, 255);&quot;&gt;&lt;font face=&quot;Nunito Sans, sans-serif&quot;&gt;gerer playlist&lt;/font&gt;&lt;/span&gt;&lt;/div&gt;" style="ellipse;whiteSpace=wrap;html=1;fillColor=#CCFF99;" vertex="1" parent="WIyWlLk6GJQsqaUBKTNV-1">
          <mxGeometry x="223" y="280" width="180" height="60" as="geometry" />
        </mxCell>
        <mxCell id="t3SlZqe1kz81l5XPFdOe-10" value="&lt;div style=&quot;text-align: start;&quot;&gt;&lt;span style=&quot;color: light-dark(rgb(0, 0, 0), rgb(255, 255, 255)); font-size: 14px; white-space-collapse: preserve; background-color: rgb(255, 255, 255);&quot;&gt;&lt;font face=&quot;Nunito Sans, sans-serif&quot;&gt;create&lt;/font&gt;&lt;/span&gt;&lt;/div&gt;" style="ellipse;whiteSpace=wrap;html=1;fillColor=#CCFF99;" vertex="1" parent="WIyWlLk6GJQsqaUBKTNV-1">
          <mxGeometry x="227.5" y="370" width="90" height="60" as="geometry" />
        </mxCell>
        <mxCell id="t3SlZqe1kz81l5XPFdOe-11" value="&lt;div style=&quot;text-align: start;&quot;&gt;&lt;span style=&quot;color: light-dark(rgb(0, 0, 0), rgb(255, 255, 255)); font-size: 14px; white-space-collapse: preserve; background-color: rgb(255, 255, 255);&quot;&gt;&lt;font face=&quot;Nunito Sans, sans-serif&quot;&gt;delete&lt;/font&gt;&lt;/span&gt;&lt;/div&gt;" style="ellipse;whiteSpace=wrap;html=1;fillColor=#CCFF99;" vertex="1" parent="WIyWlLk6GJQsqaUBKTNV-1">
          <mxGeometry x="423.5" y="380" width="90" height="60" as="geometry" />
        </mxCell>
        <mxCell id="t3SlZqe1kz81l5XPFdOe-12" value="&lt;div style=&quot;text-align: start;&quot;&gt;&lt;span style=&quot;color: light-dark(rgb(0, 0, 0), rgb(255, 255, 255)); font-size: 14px; white-space-collapse: preserve; background-color: rgb(255, 255, 255);&quot;&gt;&lt;font face=&quot;Nunito Sans, sans-serif&quot;&gt;update&lt;/font&gt;&lt;/span&gt;&lt;/div&gt;" style="ellipse;whiteSpace=wrap;html=1;fillColor=#CCFF99;" vertex="1" parent="WIyWlLk6GJQsqaUBKTNV-1">
          <mxGeometry x="330" y="370" width="90" height="60" as="geometry" />
        </mxCell>
        <mxCell id="t3SlZqe1kz81l5XPFdOe-13" value="&lt;font face=&quot;Nunito Sans, sans-serif&quot;&gt;&lt;span style=&quot;font-size: 14px; white-space-collapse: preserve; background-color: rgb(255, 255, 255);&quot;&gt;gerer les chansons dans playlist&lt;/span&gt;&lt;/font&gt;" style="ellipse;whiteSpace=wrap;html=1;fillColor=#CCFF99;" vertex="1" parent="WIyWlLk6GJQsqaUBKTNV-1">
          <mxGeometry x="227" y="440" width="217" height="60" as="geometry" />
        </mxCell>
        <mxCell id="t3SlZqe1kz81l5XPFdOe-14" value="&lt;div style=&quot;text-align: start;&quot;&gt;&lt;span style=&quot;color: light-dark(rgb(0, 0, 0), rgb(255, 255, 255)); font-size: 14px; white-space-collapse: preserve; background-color: rgb(255, 255, 255);&quot;&gt;&lt;font face=&quot;Nunito Sans, sans-serif&quot;&gt;add&lt;/font&gt;&lt;/span&gt;&lt;/div&gt;" style="ellipse;whiteSpace=wrap;html=1;fillColor=#CCFF99;" vertex="1" parent="WIyWlLk6GJQsqaUBKTNV-1">
          <mxGeometry x="280" y="535" width="90" height="60" as="geometry" />
        </mxCell>
        <mxCell id="t3SlZqe1kz81l5XPFdOe-15" value="&lt;div style=&quot;text-align: start;&quot;&gt;&lt;span style=&quot;color: light-dark(rgb(0, 0, 0), rgb(255, 255, 255)); font-size: 14px; white-space-collapse: preserve; background-color: rgb(255, 255, 255);&quot;&gt;&lt;font face=&quot;Nunito Sans, sans-serif&quot;&gt;delete&lt;/font&gt;&lt;/span&gt;&lt;/div&gt;" style="ellipse;whiteSpace=wrap;html=1;fillColor=#CCFF99;" vertex="1" parent="WIyWlLk6GJQsqaUBKTNV-1">
          <mxGeometry x="393" y="530" width="90" height="60" as="geometry" />
        </mxCell>
        <mxCell id="t3SlZqe1kz81l5XPFdOe-17" value="&lt;font face=&quot;Nunito Sans, sans-serif&quot;&gt;&lt;span style=&quot;font-size: 14px; white-space-collapse: preserve; background-color: rgb(255, 255, 255);&quot;&gt;suivre ul playlist&lt;/span&gt;&lt;/font&gt;" style="ellipse;whiteSpace=wrap;html=1;fillColor=#CCFF99;" vertex="1" parent="WIyWlLk6GJQsqaUBKTNV-1">
          <mxGeometry x="223" y="770" width="217" height="60" as="geometry" />
        </mxCell>
        <mxCell id="t3SlZqe1kz81l5XPFdOe-18" value="&lt;span style=&quot;font-family: &amp;quot;Nunito Sans&amp;quot;, sans-serif; font-size: 14px; text-align: start; white-space-collapse: preserve; background-color: rgb(255, 255, 255);&quot;&gt;Gérer une liste de chansons aimées.&lt;/span&gt;" style="ellipse;whiteSpace=wrap;html=1;fillColor=#CCFF99;" vertex="1" parent="WIyWlLk6GJQsqaUBKTNV-1">
          <mxGeometry x="227" y="610" width="217" height="60" as="geometry" />
        </mxCell>
        <mxCell id="t3SlZqe1kz81l5XPFdOe-19" value="&lt;div style=&quot;text-align: start;&quot;&gt;&lt;span style=&quot;color: light-dark(rgb(0, 0, 0), rgb(255, 255, 255)); font-size: 14px; white-space-collapse: preserve; background-color: rgb(255, 255, 255);&quot;&gt;&lt;font face=&quot;Nunito Sans, sans-serif&quot;&gt;add&lt;/font&gt;&lt;/span&gt;&lt;/div&gt;" style="ellipse;whiteSpace=wrap;html=1;fillColor=#CCFF99;" vertex="1" parent="WIyWlLk6GJQsqaUBKTNV-1">
          <mxGeometry x="303" y="700" width="90" height="50" as="geometry" />
        </mxCell>
        <mxCell id="t3SlZqe1kz81l5XPFdOe-20" value="&lt;div style=&quot;text-align: start;&quot;&gt;&lt;span style=&quot;color: light-dark(rgb(0, 0, 0), rgb(255, 255, 255)); font-size: 14px; white-space-collapse: preserve; background-color: rgb(255, 255, 255);&quot;&gt;&lt;font face=&quot;Nunito Sans, sans-serif&quot;&gt;delete&lt;/font&gt;&lt;/span&gt;&lt;/div&gt;" style="ellipse;whiteSpace=wrap;html=1;fillColor=#CCFF99;" vertex="1" parent="WIyWlLk6GJQsqaUBKTNV-1">
          <mxGeometry x="416.5" y="680" width="90" height="60" as="geometry" />
        </mxCell>
        <mxCell id="t3SlZqe1kz81l5XPFdOe-21" value="&lt;font face=&quot;Nunito Sans, sans-serif&quot;&gt;&lt;span style=&quot;font-size: 14px; white-space-collapse: preserve; background-color: rgb(255, 255, 255);&quot;&gt;upload songs&lt;/span&gt;&lt;/font&gt;" style="ellipse;whiteSpace=wrap;html=1;fillColor=#CC99FF;" vertex="1" parent="WIyWlLk6GJQsqaUBKTNV-1">
          <mxGeometry x="231.25" y="870" width="217" height="60" as="geometry" />
        </mxCell>
        <mxCell id="t3SlZqe1kz81l5XPFdOe-22" value="&lt;font face=&quot;Nunito Sans, sans-serif&quot;&gt;&lt;span style=&quot;font-size: 14px; white-space-collapse: preserve; background-color: rgb(255, 255, 255);&quot;&gt;upload songs&lt;/span&gt;&lt;/font&gt;" style="ellipse;whiteSpace=wrap;html=1;fillColor=#CC99FF;" vertex="1" parent="WIyWlLk6GJQsqaUBKTNV-1">
          <mxGeometry x="231.25" y="970" width="217" height="60" as="geometry" />
        </mxCell>
        <mxCell id="t3SlZqe1kz81l5XPFdOe-23" value="&lt;font face=&quot;Nunito Sans, sans-serif&quot;&gt;&lt;span style=&quot;font-size: 14px; white-space-collapse: preserve; background-color: rgb(255, 255, 255);&quot;&gt;gerer &lt;/span&gt;&lt;/font&gt;&lt;span style=&quot;background-color: light-dark(rgb(255, 255, 255), rgb(18, 18, 18)); font-size: 14px; white-space-collapse: preserve; font-family: &amp;quot;Nunito Sans&amp;quot;, sans-serif; color: light-dark(rgb(0, 0, 0), rgb(255, 255, 255));&quot;&gt;catalogue&lt;/span&gt;" style="ellipse;whiteSpace=wrap;html=1;fillColor=#CC99FF;" vertex="1" parent="WIyWlLk6GJQsqaUBKTNV-1">
          <mxGeometry x="232.5" y="1060" width="217" height="60" as="geometry" />
        </mxCell>
        <mxCell id="t3SlZqe1kz81l5XPFdOe-25" value="&lt;font face=&quot;Nunito Sans, sans-serif&quot;&gt;&lt;span style=&quot;font-size: 14px; white-space-collapse: preserve; background-color: rgb(255, 255, 255);&quot;&gt;gerer les utilisateurs&lt;/span&gt;&lt;/font&gt;" style="ellipse;whiteSpace=wrap;html=1;fillColor=#FF9999;" vertex="1" parent="WIyWlLk6GJQsqaUBKTNV-1">
          <mxGeometry x="234" y="1250" width="217" height="60" as="geometry" />
        </mxCell>
        <mxCell id="t3SlZqe1kz81l5XPFdOe-26" value="&lt;div style=&quot;text-align: start;&quot;&gt;&lt;span style=&quot;font-family: &amp;quot;Nunito Sans&amp;quot;, sans-serif; font-size: 14px; white-space-collapse: preserve; background-color: rgb(255, 255, 255);&quot;&gt;bannir &lt;/span&gt;&lt;/div&gt;" style="ellipse;whiteSpace=wrap;html=1;fillColor=#FF9999;" vertex="1" parent="WIyWlLk6GJQsqaUBKTNV-1">
          <mxGeometry x="210" y="1350" width="90" height="60" as="geometry" />
        </mxCell>
        <mxCell id="t3SlZqe1kz81l5XPFdOe-27" value="&lt;div style=&quot;text-align: start;&quot;&gt;&lt;span style=&quot;color: light-dark(rgb(0, 0, 0), rgb(255, 255, 255)); font-size: 14px; white-space-collapse: preserve; background-color: rgb(255, 255, 255);&quot;&gt;&lt;font face=&quot;Nunito Sans, sans-serif&quot;&gt;delete&lt;/font&gt;&lt;/span&gt;&lt;/div&gt;" style="ellipse;whiteSpace=wrap;html=1;fillColor=#FF9999;" vertex="1" parent="WIyWlLk6GJQsqaUBKTNV-1">
          <mxGeometry x="435" y="1320" width="90" height="60" as="geometry" />
        </mxCell>
        <mxCell id="t3SlZqe1kz81l5XPFdOe-28" value="&lt;div style=&quot;text-align: start;&quot;&gt;&lt;span style=&quot;font-family: &amp;quot;Nunito Sans&amp;quot;, sans-serif; font-size: 14px; white-space-collapse: preserve; background-color: rgb(255, 255, 255);&quot;&gt;débloquer&lt;/span&gt;&lt;/div&gt;" style="ellipse;whiteSpace=wrap;html=1;fillColor=#FF9999;" vertex="1" parent="WIyWlLk6GJQsqaUBKTNV-1">
          <mxGeometry x="330" y="1355" width="90" height="60" as="geometry" />
        </mxCell>
        <mxCell id="t3SlZqe1kz81l5XPFdOe-29" value="&lt;font face=&quot;Nunito Sans, sans-serif&quot;&gt;&lt;span style=&quot;font-size: 14px; white-space-collapse: preserve; background-color: rgb(255, 255, 255);&quot;&gt;chansons&lt;/span&gt;&lt;/font&gt;" style="ellipse;whiteSpace=wrap;html=1;fillColor=#FF9999;" vertex="1" parent="WIyWlLk6GJQsqaUBKTNV-1">
          <mxGeometry x="230" y="1560" width="133" height="60" as="geometry" />
        </mxCell>
        <mxCell id="t3SlZqe1kz81l5XPFdOe-30" value="&lt;div style=&quot;text-align: start;&quot;&gt;&lt;span style=&quot;font-family: &amp;quot;Nunito Sans&amp;quot;, sans-serif; font-size: 14px; white-space-collapse: preserve; background-color: rgb(255, 255, 255);&quot;&gt;Superviser &lt;/span&gt;&lt;/div&gt;" style="ellipse;whiteSpace=wrap;html=1;fillColor=#FF9999;" vertex="1" parent="WIyWlLk6GJQsqaUBKTNV-1">
          <mxGeometry x="234" y="1460" width="116" height="60" as="geometry" />
        </mxCell>
        <mxCell id="t3SlZqe1kz81l5XPFdOe-31" value="&lt;font face=&quot;Nunito Sans, sans-serif&quot;&gt;&lt;span style=&quot;font-size: 14px; white-space-collapse: preserve; background-color: rgb(255, 255, 255);&quot;&gt;playlist&lt;/span&gt;&lt;/font&gt;" style="ellipse;whiteSpace=wrap;html=1;fillColor=#FF9999;" vertex="1" parent="WIyWlLk6GJQsqaUBKTNV-1">
          <mxGeometry x="368.5" y="1520" width="133" height="60" as="geometry" />
        </mxCell>
        <mxCell id="t3SlZqe1kz81l5XPFdOe-33" value="&lt;span style=&quot;font-family: &amp;quot;Nunito Sans&amp;quot;, sans-serif; font-size: 14px; text-align: start; white-space-collapse: preserve; background-color: rgb(255, 255, 255);&quot;&gt;&lt;b&gt;register&lt;/b&gt;&lt;/span&gt;" style="ellipse;whiteSpace=wrap;html=1;fillColor=#99FFFF;" vertex="1" parent="WIyWlLk6GJQsqaUBKTNV-1">
          <mxGeometry x="244" y="-100" width="130" height="70" as="geometry" />
        </mxCell>
        <mxCell id="t3SlZqe1kz81l5XPFdOe-34" value="&lt;font style=&quot;font-size: 18px;&quot;&gt;Cas d&#39;Utilisation : Plateforme de Streaming Musical&lt;/font&gt;" style="text;html=1;align=center;verticalAlign=middle;whiteSpace=wrap;rounded=0;" vertex="1" parent="WIyWlLk6GJQsqaUBKTNV-1">
          <mxGeometry x="158.5" y="-300" width="276.5" height="30" as="geometry" />
        </mxCell>
        <mxCell id="t3SlZqe1kz81l5XPFdOe-35" value="" style="endArrow=classic;html=1;rounded=0;entryX=0.436;entryY=0.96;entryDx=0;entryDy=0;entryPerimeter=0;exitX=0.408;exitY=0.061;exitDx=0;exitDy=0;exitPerimeter=0;" edge="1" parent="WIyWlLk6GJQsqaUBKTNV-1" source="t3SlZqe1kz81l5XPFdOe-10" target="t3SlZqe1kz81l5XPFdOe-9">
          <mxGeometry width="50" height="50" relative="1" as="geometry">
            <mxPoint x="723" y="540" as="sourcePoint" />
            <mxPoint x="773" y="490" as="targetPoint" />
          </mxGeometry>
        </mxCell>
        <mxCell id="t3SlZqe1kz81l5XPFdOe-36" value="" style="endArrow=classic;html=1;rounded=0;" edge="1" parent="WIyWlLk6GJQsqaUBKTNV-1" source="t3SlZqe1kz81l5XPFdOe-12" target="t3SlZqe1kz81l5XPFdOe-9">
          <mxGeometry width="50" height="50" relative="1" as="geometry">
            <mxPoint x="310" y="399" as="sourcePoint" />
            <mxPoint x="331" y="348" as="targetPoint" />
          </mxGeometry>
        </mxCell>
        <mxCell id="t3SlZqe1kz81l5XPFdOe-37" value="" style="endArrow=classic;html=1;rounded=0;exitX=0.251;exitY=0.063;exitDx=0;exitDy=0;exitPerimeter=0;entryX=1;entryY=1;entryDx=0;entryDy=0;" edge="1" parent="WIyWlLk6GJQsqaUBKTNV-1" source="t3SlZqe1kz81l5XPFdOe-11" target="t3SlZqe1kz81l5XPFdOe-9">
          <mxGeometry width="50" height="50" relative="1" as="geometry">
            <mxPoint x="388" y="378" as="sourcePoint" />
            <mxPoint x="365" y="349" as="targetPoint" />
          </mxGeometry>
        </mxCell>
        <mxCell id="t3SlZqe1kz81l5XPFdOe-38" value="" style="endArrow=classic;html=1;rounded=0;entryX=0.551;entryY=0.976;entryDx=0;entryDy=0;entryPerimeter=0;exitX=0.659;exitY=0.094;exitDx=0;exitDy=0;exitPerimeter=0;" edge="1" parent="WIyWlLk6GJQsqaUBKTNV-1" source="t3SlZqe1kz81l5XPFdOe-14" target="t3SlZqe1kz81l5XPFdOe-13">
          <mxGeometry width="50" height="50" relative="1" as="geometry">
            <mxPoint x="613" y="630" as="sourcePoint" />
            <mxPoint x="663" y="580" as="targetPoint" />
          </mxGeometry>
        </mxCell>
        <mxCell id="t3SlZqe1kz81l5XPFdOe-39" value="" style="endArrow=classic;html=1;rounded=0;entryX=0.658;entryY=0.963;entryDx=0;entryDy=0;entryPerimeter=0;exitX=0;exitY=0;exitDx=0;exitDy=0;" edge="1" parent="WIyWlLk6GJQsqaUBKTNV-1" source="t3SlZqe1kz81l5XPFdOe-15" target="t3SlZqe1kz81l5XPFdOe-13">
          <mxGeometry width="50" height="50" relative="1" as="geometry">
            <mxPoint x="349" y="551" as="sourcePoint" />
            <mxPoint x="357" y="509" as="targetPoint" />
          </mxGeometry>
        </mxCell>
        <mxCell id="t3SlZqe1kz81l5XPFdOe-40" value="" style="endArrow=classic;html=1;rounded=0;entryX=0.5;entryY=1;entryDx=0;entryDy=0;exitX=0.5;exitY=0;exitDx=0;exitDy=0;" edge="1" parent="WIyWlLk6GJQsqaUBKTNV-1" source="t3SlZqe1kz81l5XPFdOe-19" target="t3SlZqe1kz81l5XPFdOe-18">
          <mxGeometry width="50" height="50" relative="1" as="geometry">
            <mxPoint x="349" y="551" as="sourcePoint" />
            <mxPoint x="357" y="509" as="targetPoint" />
          </mxGeometry>
        </mxCell>
        <mxCell id="t3SlZqe1kz81l5XPFdOe-41" value="" style="endArrow=classic;html=1;rounded=0;entryX=1;entryY=1;entryDx=0;entryDy=0;exitX=0;exitY=0;exitDx=0;exitDy=0;" edge="1" parent="WIyWlLk6GJQsqaUBKTNV-1" source="t3SlZqe1kz81l5XPFdOe-20" target="t3SlZqe1kz81l5XPFdOe-18">
          <mxGeometry width="50" height="50" relative="1" as="geometry">
            <mxPoint x="368" y="712" as="sourcePoint" />
            <mxPoint x="346" y="680" as="targetPoint" />
          </mxGeometry>
        </mxCell>
        <mxCell id="t3SlZqe1kz81l5XPFdOe-42" value="&lt;span style=&quot;font-family: &amp;quot;Nunito Sans&amp;quot;, sans-serif; font-size: 14px; text-align: start; white-space-collapse: preserve; background-color: rgb(255, 255, 255);&quot;&gt;&lt;b&gt;login&lt;/b&gt;&lt;/span&gt;" style="ellipse;whiteSpace=wrap;html=1;fillColor=#99FFFF;" vertex="1" parent="WIyWlLk6GJQsqaUBKTNV-1">
          <mxGeometry x="240" y="-180" width="130" height="70" as="geometry" />
        </mxCell>
        <mxCell id="t3SlZqe1kz81l5XPFdOe-43" value="" style="endArrow=none;html=1;rounded=0;entryX=0;entryY=0.5;entryDx=0;entryDy=0;" edge="1" parent="WIyWlLk6GJQsqaUBKTNV-1" source="t3SlZqe1kz81l5XPFdOe-0" target="t3SlZqe1kz81l5XPFdOe-42">
          <mxGeometry width="50" height="50" relative="1" as="geometry">
            <mxPoint x="500" y="180" as="sourcePoint" />
            <mxPoint x="550" y="130" as="targetPoint" />
          </mxGeometry>
        </mxCell>
        <mxCell id="t3SlZqe1kz81l5XPFdOe-44" value="" style="endArrow=none;html=1;rounded=0;entryX=0;entryY=0.5;entryDx=0;entryDy=0;exitX=0.5;exitY=0.5;exitDx=0;exitDy=0;exitPerimeter=0;" edge="1" parent="WIyWlLk6GJQsqaUBKTNV-1" source="t3SlZqe1kz81l5XPFdOe-0" target="t3SlZqe1kz81l5XPFdOe-33">
          <mxGeometry width="50" height="50" relative="1" as="geometry">
            <mxPoint x="120" y="93" as="sourcePoint" />
            <mxPoint x="240" y="-45" as="targetPoint" />
          </mxGeometry>
        </mxCell>
        <mxCell id="t3SlZqe1kz81l5XPFdOe-45" value="" style="endArrow=none;html=1;rounded=0;entryX=0;entryY=0.5;entryDx=0;entryDy=0;" edge="1" parent="WIyWlLk6GJQsqaUBKTNV-1" target="t3SlZqe1kz81l5XPFdOe-7">
          <mxGeometry width="50" height="50" relative="1" as="geometry">
            <mxPoint x="100" y="100" as="sourcePoint" />
            <mxPoint x="244" y="35" as="targetPoint" />
          </mxGeometry>
        </mxCell>
        <mxCell id="t3SlZqe1kz81l5XPFdOe-46" value="" style="endArrow=none;html=1;rounded=0;entryX=0;entryY=0.5;entryDx=0;entryDy=0;" edge="1" parent="WIyWlLk6GJQsqaUBKTNV-1" source="t3SlZqe1kz81l5XPFdOe-0" target="t3SlZqe1kz81l5XPFdOe-8">
          <mxGeometry width="50" height="50" relative="1" as="geometry">
            <mxPoint x="110" y="110" as="sourcePoint" />
            <mxPoint x="238" y="125" as="targetPoint" />
          </mxGeometry>
        </mxCell>
        <mxCell id="t3SlZqe1kz81l5XPFdOe-47" value="&lt;div style=&quot;text-align: start;&quot;&gt;&lt;span style=&quot;color: light-dark(rgb(0, 0, 0), rgb(255, 255, 255)); font-size: 14px; white-space-collapse: preserve; background-color: rgb(255, 255, 255);&quot;&gt;&lt;font face=&quot;Nunito Sans, sans-serif&quot;&gt;delete&lt;/font&gt;&lt;/span&gt;&lt;/div&gt;" style="ellipse;whiteSpace=wrap;html=1;fillColor=#CC99FF;" vertex="1" parent="WIyWlLk6GJQsqaUBKTNV-1">
          <mxGeometry x="274" y="1160" width="90" height="60" as="geometry" />
        </mxCell>
        <mxCell id="t3SlZqe1kz81l5XPFdOe-48" value="&lt;div style=&quot;text-align: start;&quot;&gt;&lt;span style=&quot;color: light-dark(rgb(0, 0, 0), rgb(255, 255, 255)); font-size: 14px; white-space-collapse: preserve; background-color: rgb(255, 255, 255);&quot;&gt;&lt;font face=&quot;Nunito Sans, sans-serif&quot;&gt;update&lt;/font&gt;&lt;/span&gt;&lt;/div&gt;" style="ellipse;whiteSpace=wrap;html=1;fillColor=#CC99FF;" vertex="1" parent="WIyWlLk6GJQsqaUBKTNV-1">
          <mxGeometry x="483" y="1109" width="90" height="60" as="geometry" />
        </mxCell>
        <mxCell id="t3SlZqe1kz81l5XPFdOe-49" value="&lt;div style=&quot;text-align: start;&quot;&gt;&lt;span style=&quot;color: light-dark(rgb(0, 0, 0), rgb(255, 255, 255)); font-size: 14px; white-space-collapse: preserve; background-color: rgb(255, 255, 255);&quot;&gt;&lt;font face=&quot;Nunito Sans, sans-serif&quot;&gt;add&lt;/font&gt;&lt;/span&gt;&lt;/div&gt;" style="ellipse;whiteSpace=wrap;html=1;fillColor=#CC99FF;" vertex="1" parent="WIyWlLk6GJQsqaUBKTNV-1">
          <mxGeometry x="390" y="1150" width="90" height="60" as="geometry" />
        </mxCell>
        <mxCell id="t3SlZqe1kz81l5XPFdOe-51" value="" style="endArrow=classic;html=1;rounded=0;entryX=1;entryY=0.5;entryDx=0;entryDy=0;" edge="1" parent="WIyWlLk6GJQsqaUBKTNV-1" source="t3SlZqe1kz81l5XPFdOe-48" target="t3SlZqe1kz81l5XPFdOe-23">
          <mxGeometry width="50" height="50" relative="1" as="geometry">
            <mxPoint x="670" y="1060" as="sourcePoint" />
            <mxPoint x="720" y="1010" as="targetPoint" />
          </mxGeometry>
        </mxCell>
        <mxCell id="t3SlZqe1kz81l5XPFdOe-52" value="" style="endArrow=classic;html=1;rounded=0;entryX=1;entryY=1;entryDx=0;entryDy=0;exitX=0.434;exitY=0.017;exitDx=0;exitDy=0;exitPerimeter=0;" edge="1" parent="WIyWlLk6GJQsqaUBKTNV-1" source="t3SlZqe1kz81l5XPFdOe-49" target="t3SlZqe1kz81l5XPFdOe-23">
          <mxGeometry width="50" height="50" relative="1" as="geometry">
            <mxPoint x="505" y="1129" as="sourcePoint" />
            <mxPoint x="460" y="1100" as="targetPoint" />
          </mxGeometry>
        </mxCell>
        <mxCell id="t3SlZqe1kz81l5XPFdOe-53" value="" style="endArrow=classic;html=1;rounded=0;entryX=0.5;entryY=1;entryDx=0;entryDy=0;exitX=0.658;exitY=0.044;exitDx=0;exitDy=0;exitPerimeter=0;" edge="1" parent="WIyWlLk6GJQsqaUBKTNV-1" source="t3SlZqe1kz81l5XPFdOe-47" target="t3SlZqe1kz81l5XPFdOe-23">
          <mxGeometry width="50" height="50" relative="1" as="geometry">
            <mxPoint x="439" y="1161" as="sourcePoint" />
            <mxPoint x="428" y="1121" as="targetPoint" />
          </mxGeometry>
        </mxCell>
        <mxCell id="t3SlZqe1kz81l5XPFdOe-54" value="" style="endArrow=none;html=1;rounded=0;entryX=0.064;entryY=0.732;entryDx=0;entryDy=0;exitX=0.5;exitY=0.5;exitDx=0;exitDy=0;exitPerimeter=0;entryPerimeter=0;" edge="1" parent="WIyWlLk6GJQsqaUBKTNV-1" source="t3SlZqe1kz81l5XPFdOe-3" target="t3SlZqe1kz81l5XPFdOe-9">
          <mxGeometry width="50" height="50" relative="1" as="geometry">
            <mxPoint x="120" y="121" as="sourcePoint" />
            <mxPoint x="243" y="210" as="targetPoint" />
          </mxGeometry>
        </mxCell>
        <mxCell id="t3SlZqe1kz81l5XPFdOe-55" value="" style="endArrow=none;html=1;rounded=0;entryX=0.047;entryY=0.678;entryDx=0;entryDy=0;entryPerimeter=0;" edge="1" parent="WIyWlLk6GJQsqaUBKTNV-1" target="t3SlZqe1kz81l5XPFdOe-13">
          <mxGeometry width="50" height="50" relative="1" as="geometry">
            <mxPoint x="90" y="540" as="sourcePoint" />
            <mxPoint x="245" y="334" as="targetPoint" />
          </mxGeometry>
        </mxCell>
        <mxCell id="t3SlZqe1kz81l5XPFdOe-56" value="" style="endArrow=none;html=1;rounded=0;entryX=0.055;entryY=0.291;entryDx=0;entryDy=0;entryPerimeter=0;" edge="1" parent="WIyWlLk6GJQsqaUBKTNV-1" target="t3SlZqe1kz81l5XPFdOe-18">
          <mxGeometry width="50" height="50" relative="1" as="geometry">
            <mxPoint x="80" y="540" as="sourcePoint" />
            <mxPoint x="247" y="491" as="targetPoint" />
          </mxGeometry>
        </mxCell>
        <mxCell id="t3SlZqe1kz81l5XPFdOe-57" value="" style="endArrow=none;html=1;rounded=0;" edge="1" parent="WIyWlLk6GJQsqaUBKTNV-1" target="t3SlZqe1kz81l5XPFdOe-17">
          <mxGeometry width="50" height="50" relative="1" as="geometry">
            <mxPoint x="90" y="540" as="sourcePoint" />
            <mxPoint x="249" y="637" as="targetPoint" />
          </mxGeometry>
        </mxCell>
        <mxCell id="t3SlZqe1kz81l5XPFdOe-58" value="" style="endArrow=none;html=1;rounded=0;exitX=0.5;exitY=0.5;exitDx=0;exitDy=0;exitPerimeter=0;entryX=0.023;entryY=0.702;entryDx=0;entryDy=0;entryPerimeter=0;" edge="1" parent="WIyWlLk6GJQsqaUBKTNV-1" source="t3SlZqe1kz81l5XPFdOe-2" target="t3SlZqe1kz81l5XPFdOe-21">
          <mxGeometry width="50" height="50" relative="1" as="geometry">
            <mxPoint x="100" y="550" as="sourcePoint" />
            <mxPoint x="315" y="781" as="targetPoint" />
          </mxGeometry>
        </mxCell>
        <mxCell id="t3SlZqe1kz81l5XPFdOe-59" value="" style="endArrow=none;html=1;rounded=0;entryX=0;entryY=0.5;entryDx=0;entryDy=0;" edge="1" parent="WIyWlLk6GJQsqaUBKTNV-1" target="t3SlZqe1kz81l5XPFdOe-22">
          <mxGeometry width="50" height="50" relative="1" as="geometry">
            <mxPoint x="100" y="990" as="sourcePoint" />
            <mxPoint x="246" y="922" as="targetPoint" />
          </mxGeometry>
        </mxCell>
        <mxCell id="t3SlZqe1kz81l5XPFdOe-60" value="" style="endArrow=none;html=1;rounded=0;entryX=0;entryY=0.5;entryDx=0;entryDy=0;" edge="1" parent="WIyWlLk6GJQsqaUBKTNV-1" target="t3SlZqe1kz81l5XPFdOe-23">
          <mxGeometry width="50" height="50" relative="1" as="geometry">
            <mxPoint x="100" y="990" as="sourcePoint" />
            <mxPoint x="241" y="1010" as="targetPoint" />
          </mxGeometry>
        </mxCell>
        <mxCell id="t3SlZqe1kz81l5XPFdOe-61" value="" style="endArrow=classic;html=1;rounded=0;entryX=0.81;entryY=0.886;entryDx=0;entryDy=0;entryPerimeter=0;" edge="1" parent="WIyWlLk6GJQsqaUBKTNV-1" source="t3SlZqe1kz81l5XPFdOe-27" target="t3SlZqe1kz81l5XPFdOe-25">
          <mxGeometry width="50" height="50" relative="1" as="geometry">
            <mxPoint x="410" y="1380" as="sourcePoint" />
            <mxPoint x="460" y="1330" as="targetPoint" />
          </mxGeometry>
        </mxCell>
        <mxCell id="t3SlZqe1kz81l5XPFdOe-62" value="" style="endArrow=classic;html=1;rounded=0;entryX=0.587;entryY=0.989;entryDx=0;entryDy=0;entryPerimeter=0;exitX=0.5;exitY=0;exitDx=0;exitDy=0;" edge="1" parent="WIyWlLk6GJQsqaUBKTNV-1" source="t3SlZqe1kz81l5XPFdOe-28" target="t3SlZqe1kz81l5XPFdOe-25">
          <mxGeometry width="50" height="50" relative="1" as="geometry">
            <mxPoint x="457" y="1339" as="sourcePoint" />
            <mxPoint x="416" y="1313" as="targetPoint" />
          </mxGeometry>
        </mxCell>
        <mxCell id="t3SlZqe1kz81l5XPFdOe-63" value="" style="endArrow=classic;html=1;rounded=0;entryX=0.344;entryY=0.989;entryDx=0;entryDy=0;entryPerimeter=0;exitX=0.779;exitY=0.128;exitDx=0;exitDy=0;exitPerimeter=0;" edge="1" parent="WIyWlLk6GJQsqaUBKTNV-1" source="t3SlZqe1kz81l5XPFdOe-26" target="t3SlZqe1kz81l5XPFdOe-25">
          <mxGeometry width="50" height="50" relative="1" as="geometry">
            <mxPoint x="385" y="1365" as="sourcePoint" />
            <mxPoint x="367" y="1319" as="targetPoint" />
          </mxGeometry>
        </mxCell>
        <mxCell id="t3SlZqe1kz81l5XPFdOe-64" value="" style="endArrow=classic;html=1;rounded=0;entryX=0.5;entryY=1;entryDx=0;entryDy=0;" edge="1" parent="WIyWlLk6GJQsqaUBKTNV-1" source="t3SlZqe1kz81l5XPFdOe-29" target="t3SlZqe1kz81l5XPFdOe-30">
          <mxGeometry width="50" height="50" relative="1" as="geometry">
            <mxPoint x="290" y="1368" as="sourcePoint" />
            <mxPoint x="315" y="1319" as="targetPoint" />
          </mxGeometry>
        </mxCell>
        <mxCell id="t3SlZqe1kz81l5XPFdOe-65" value="" style="endArrow=classic;html=1;rounded=0;entryX=0.996;entryY=0.667;entryDx=0;entryDy=0;entryPerimeter=0;" edge="1" parent="WIyWlLk6GJQsqaUBKTNV-1" source="t3SlZqe1kz81l5XPFdOe-31" target="t3SlZqe1kz81l5XPFdOe-30">
          <mxGeometry width="50" height="50" relative="1" as="geometry">
            <mxPoint x="311" y="1570" as="sourcePoint" />
            <mxPoint x="317" y="1531" as="targetPoint" />
          </mxGeometry>
        </mxCell>
        <mxCell id="t3SlZqe1kz81l5XPFdOe-66" style="edgeStyle=orthogonalEdgeStyle;rounded=0;orthogonalLoop=1;jettySize=auto;html=1;exitX=0.5;exitY=1;exitDx=0;exitDy=0;" edge="1" parent="WIyWlLk6GJQsqaUBKTNV-1" source="t3SlZqe1kz81l5XPFdOe-30" target="t3SlZqe1kz81l5XPFdOe-30">
          <mxGeometry relative="1" as="geometry" />
        </mxCell>
        <mxCell id="t3SlZqe1kz81l5XPFdOe-67" value="" style="endArrow=none;html=1;rounded=0;entryX=0;entryY=0.5;entryDx=0;entryDy=0;exitX=0.5;exitY=0.5;exitDx=0;exitDy=0;exitPerimeter=0;" edge="1" parent="WIyWlLk6GJQsqaUBKTNV-1" source="t3SlZqe1kz81l5XPFdOe-4" target="t3SlZqe1kz81l5XPFdOe-25">
          <mxGeometry width="50" height="50" relative="1" as="geometry">
            <mxPoint x="410" y="1380" as="sourcePoint" />
            <mxPoint x="460" y="1330" as="targetPoint" />
          </mxGeometry>
        </mxCell>
        <mxCell id="t3SlZqe1kz81l5XPFdOe-68" value="" style="endArrow=none;html=1;rounded=0;exitX=0.5;exitY=0.5;exitDx=0;exitDy=0;exitPerimeter=0;" edge="1" parent="WIyWlLk6GJQsqaUBKTNV-1" source="t3SlZqe1kz81l5XPFdOe-4" target="t3SlZqe1kz81l5XPFdOe-30">
          <mxGeometry width="50" height="50" relative="1" as="geometry">
            <mxPoint x="105" y="1395" as="sourcePoint" />
            <mxPoint x="244" y="1290" as="targetPoint" />
          </mxGeometry>
        </mxCell>
        <mxCell id="t3SlZqe1kz81l5XPFdOe-69" value="&lt;div style=&quot;text-align: start;&quot;&gt;&lt;span style=&quot;color: light-dark(rgb(0, 0, 0), rgb(255, 255, 255)); font-size: 14px; white-space-collapse: preserve; background-color: rgb(255, 255, 255);&quot;&gt;&lt;font face=&quot;Nunito Sans, sans-serif&quot;&gt;auth&lt;/font&gt;&lt;/span&gt;&lt;/div&gt;" style="ellipse;whiteSpace=wrap;html=1;fillColor=#6666FF;" vertex="1" parent="WIyWlLk6GJQsqaUBKTNV-1">
          <mxGeometry x="600" y="440" width="180" height="60" as="geometry" />
        </mxCell>
        <mxCell id="t3SlZqe1kz81l5XPFdOe-70" value="&amp;lt;&lt;font style=&quot;font-size: 18px;&quot;&gt;include&lt;/font&gt;&amp;gt;" style="endArrow=block;dashed=1;endFill=0;endSize=12;html=1;rounded=0;entryX=0.5;entryY=0;entryDx=0;entryDy=0;" edge="1" parent="WIyWlLk6GJQsqaUBKTNV-1" source="t3SlZqe1kz81l5XPFdOe-9" target="t3SlZqe1kz81l5XPFdOe-69">
          <mxGeometry width="160" relative="1" as="geometry">
            <mxPoint x="550" y="270" as="sourcePoint" />
            <mxPoint x="710" y="270" as="targetPoint" />
            <Array as="points">
              <mxPoint x="700" y="280" />
            </Array>
          </mxGeometry>
        </mxCell>
        <mxCell id="t3SlZqe1kz81l5XPFdOe-71" value="&amp;lt;&lt;font style=&quot;font-size: 18px;&quot;&gt;include&lt;/font&gt;&amp;gt;" style="endArrow=block;dashed=1;endFill=0;endSize=12;html=1;rounded=0;exitX=1;exitY=0.5;exitDx=0;exitDy=0;entryX=0;entryY=0.5;entryDx=0;entryDy=0;" edge="1" parent="WIyWlLk6GJQsqaUBKTNV-1" source="t3SlZqe1kz81l5XPFdOe-13" target="t3SlZqe1kz81l5XPFdOe-69">
          <mxGeometry width="160" relative="1" as="geometry">
            <mxPoint x="411" y="313" as="sourcePoint" />
            <mxPoint x="610" y="470" as="targetPoint" />
            <Array as="points">
              <mxPoint x="550" y="470" />
            </Array>
          </mxGeometry>
        </mxCell>
        <mxCell id="t3SlZqe1kz81l5XPFdOe-72" value="&amp;lt;&lt;font style=&quot;font-size: 18px;&quot;&gt;include&lt;/font&gt;&amp;gt;" style="endArrow=block;dashed=1;endFill=0;endSize=12;html=1;rounded=0;exitX=1;exitY=0.5;exitDx=0;exitDy=0;entryX=0.352;entryY=1.04;entryDx=0;entryDy=0;entryPerimeter=0;" edge="1" parent="WIyWlLk6GJQsqaUBKTNV-1" source="t3SlZqe1kz81l5XPFdOe-18" target="t3SlZqe1kz81l5XPFdOe-69">
          <mxGeometry width="160" relative="1" as="geometry">
            <mxPoint x="525" y="600" as="sourcePoint" />
            <mxPoint x="691" y="600" as="targetPoint" />
            <Array as="points">
              <mxPoint x="631" y="600" />
            </Array>
          </mxGeometry>
        </mxCell>
        <mxCell id="t3SlZqe1kz81l5XPFdOe-73" value="&amp;lt;&lt;font style=&quot;font-size: 18px;&quot;&gt;include&lt;/font&gt;&amp;gt;" style="endArrow=block;dashed=1;endFill=0;endSize=12;html=1;rounded=0;exitX=1;exitY=0.5;exitDx=0;exitDy=0;entryX=0.651;entryY=0.912;entryDx=0;entryDy=0;entryPerimeter=0;" edge="1" parent="WIyWlLk6GJQsqaUBKTNV-1" source="t3SlZqe1kz81l5XPFdOe-22" target="t3SlZqe1kz81l5XPFdOe-69">
          <mxGeometry width="160" relative="1" as="geometry">
            <mxPoint x="540" y="910" as="sourcePoint" />
            <mxPoint x="696" y="910" as="targetPoint" />
            <Array as="points">
              <mxPoint x="646" y="910" />
            </Array>
          </mxGeometry>
        </mxCell>
        <mxCell id="t3SlZqe1kz81l5XPFdOe-74" value="&amp;lt;&lt;font style=&quot;font-size: 18px;&quot;&gt;include&lt;/font&gt;&amp;gt;" style="endArrow=block;dashed=1;endFill=0;endSize=12;html=1;rounded=0;exitX=1;exitY=0.5;exitDx=0;exitDy=0;entryX=1;entryY=1;entryDx=0;entryDy=0;" edge="1" parent="WIyWlLk6GJQsqaUBKTNV-1" source="t3SlZqe1kz81l5XPFdOe-25" target="t3SlZqe1kz81l5XPFdOe-69">
          <mxGeometry width="160" relative="1" as="geometry">
            <mxPoint x="600" y="1220" as="sourcePoint" />
            <mxPoint x="756" y="1220" as="targetPoint" />
            <Array as="points">
              <mxPoint x="706" y="1220" />
            </Array>
          </mxGeometry>
        </mxCell>
        <mxCell id="t3SlZqe1kz81l5XPFdOe-75" value="&amp;lt;&lt;font style=&quot;font-size: 18px;&quot;&gt;include&lt;/font&gt;&amp;gt;" style="endArrow=block;dashed=1;endFill=0;endSize=12;html=1;rounded=0;exitX=1;exitY=0.5;exitDx=0;exitDy=0;entryX=1;entryY=1;entryDx=0;entryDy=0;" edge="1" parent="WIyWlLk6GJQsqaUBKTNV-1" source="t3SlZqe1kz81l5XPFdOe-31" target="t3SlZqe1kz81l5XPFdOe-69">
          <mxGeometry width="160" relative="1" as="geometry">
            <mxPoint x="560" y="1510" as="sourcePoint" />
            <mxPoint x="716" y="1510" as="targetPoint" />
            <Array as="points">
              <mxPoint x="666" y="1510" />
            </Array>
          </mxGeometry>
        </mxCell>
        <mxCell id="t3SlZqe1kz81l5XPFdOe-76" value="&amp;lt;&lt;font style=&quot;font-size: 18px;&quot;&gt;include&lt;/font&gt;&amp;gt;" style="endArrow=block;dashed=1;endFill=0;endSize=12;html=1;rounded=0;exitX=1;exitY=0.5;exitDx=0;exitDy=0;entryX=0.5;entryY=1;entryDx=0;entryDy=0;" edge="1" parent="WIyWlLk6GJQsqaUBKTNV-1" source="t3SlZqe1kz81l5XPFdOe-21" target="t3SlZqe1kz81l5XPFdOe-69">
          <mxGeometry width="160" relative="1" as="geometry">
            <mxPoint x="470" y="890" as="sourcePoint" />
            <mxPoint x="626" y="890" as="targetPoint" />
            <Array as="points">
              <mxPoint x="576" y="890" />
            </Array>
          </mxGeometry>
        </mxCell>
        <mxCell id="t3SlZqe1kz81l5XPFdOe-77" value="&amp;lt;&lt;font style=&quot;font-size: 18px;&quot;&gt;include&lt;/font&gt;&amp;gt;" style="endArrow=block;dashed=1;endFill=0;endSize=12;html=1;rounded=0;exitX=0.961;exitY=0.211;exitDx=0;exitDy=0;entryX=0.772;entryY=0.912;entryDx=0;entryDy=0;exitPerimeter=0;entryPerimeter=0;" edge="1" parent="WIyWlLk6GJQsqaUBKTNV-1" source="t3SlZqe1kz81l5XPFdOe-23" target="t3SlZqe1kz81l5XPFdOe-69">
          <mxGeometry width="160" relative="1" as="geometry">
            <mxPoint x="570" y="1030" as="sourcePoint" />
            <mxPoint x="726" y="1030" as="targetPoint" />
            <Array as="points">
              <mxPoint x="676" y="1030" />
            </Array>
          </mxGeometry>
        </mxCell>
        <mxCell id="t3SlZqe1kz81l5XPFdOe-78" value="&lt;font face=&quot;Nunito Sans, sans-serif&quot;&gt;&lt;span style=&quot;font-size: 14px; white-space-collapse: preserve; background-color: rgb(255, 255, 255);&quot;&gt;ajouter chansons&lt;/span&gt;&lt;/font&gt;" style="ellipse;whiteSpace=wrap;html=1;fillColor=#CCFF99;" vertex="1" parent="WIyWlLk6GJQsqaUBKTNV-1">
          <mxGeometry x="470" y="320" width="90" height="60" as="geometry" />
        </mxCell>
        <mxCell id="t3SlZqe1kz81l5XPFdOe-79" value="" style="endArrow=classic;html=1;rounded=0;exitX=0.032;exitY=0.375;exitDx=0;exitDy=0;exitPerimeter=0;entryX=0.942;entryY=0.705;entryDx=0;entryDy=0;entryPerimeter=0;" edge="1" parent="WIyWlLk6GJQsqaUBKTNV-1" source="t3SlZqe1kz81l5XPFdOe-78" target="t3SlZqe1kz81l5XPFdOe-9">
          <mxGeometry width="50" height="50" relative="1" as="geometry">
            <mxPoint x="456" y="394" as="sourcePoint" />
            <mxPoint x="387" y="341" as="targetPoint" />
          </mxGeometry>
        </mxCell>
        <mxCell id="t3SlZqe1kz81l5XPFdOe-80" value="&lt;font face=&quot;Nunito Sans, sans-serif&quot;&gt;&lt;span style=&quot;font-size: 14px; white-space-collapse: preserve; background-color: rgb(255, 255, 255);&quot;&gt;&lt;b&gt;ecouter&lt;/b&gt;&lt;/span&gt;&lt;/font&gt;" style="ellipse;whiteSpace=wrap;html=1;fillColor=#99FFFF;" vertex="1" parent="WIyWlLk6GJQsqaUBKTNV-1">
          <mxGeometry x="246.5" y="160" width="157" height="60" as="geometry" />
        </mxCell>
        <mxCell id="t3SlZqe1kz81l5XPFdOe-81" value="" style="endArrow=none;html=1;rounded=0;entryX=0;entryY=0.5;entryDx=0;entryDy=0;exitX=0.5;exitY=0.5;exitDx=0;exitDy=0;exitPerimeter=0;" edge="1" parent="WIyWlLk6GJQsqaUBKTNV-1" source="t3SlZqe1kz81l5XPFdOe-0" target="t3SlZqe1kz81l5XPFdOe-80">
          <mxGeometry width="50" height="50" relative="1" as="geometry">
            <mxPoint x="110" y="100" as="sourcePoint" />
            <mxPoint x="253" y="120" as="targetPoint" />
          </mxGeometry>
        </mxCell>
        <mxCell id="t3SlZqe1kz81l5XPFdOe-82" value="" style="endArrow=none;html=1;rounded=0;entryX=0;entryY=1;entryDx=0;entryDy=0;" edge="1" parent="WIyWlLk6GJQsqaUBKTNV-1" target="t3SlZqe1kz81l5XPFdOe-80">
          <mxGeometry width="50" height="50" relative="1" as="geometry">
            <mxPoint x="80" y="540" as="sourcePoint" />
            <mxPoint x="245" y="334" as="targetPoint" />
          </mxGeometry>
        </mxCell>
        <mxCell id="t3SlZqe1kz81l5XPFdOe-83" value="" style="endArrow=none;html=1;rounded=0;entryX=0.084;entryY=0.767;entryDx=0;entryDy=0;entryPerimeter=0;exitX=0.5;exitY=0.5;exitDx=0;exitDy=0;exitPerimeter=0;" edge="1" parent="WIyWlLk6GJQsqaUBKTNV-1" source="t3SlZqe1kz81l5XPFdOe-2" target="t3SlZqe1kz81l5XPFdOe-80">
          <mxGeometry width="50" height="50" relative="1" as="geometry">
            <mxPoint x="90" y="550" as="sourcePoint" />
            <mxPoint x="280" y="221" as="targetPoint" />
            <Array as="points">
              <mxPoint x="170" y="920" />
              <mxPoint x="190" y="730" />
              <mxPoint x="200" y="270" />
            </Array>
          </mxGeometry>
        </mxCell>
      </root>
    </mxGraphModel>
  </diagram>
</mxfile>
